<?xml version="1.0" encoding="UTF-8" standalone="no"?>
<!-- Creator: ESRI ArcMap 9.0.0.535 -->
<svg
   xmlns:dc="http://purl.org/dc/elements/1.1/"
   xmlns:cc="http://web.resource.org/cc/"
   xmlns:rdf="http://www.w3.org/1999/02/22-rdf-syntax-ns#"
   xmlns:svg="http://www.w3.org/2000/svg"
   xmlns="http://www.w3.org/2000/svg"
   xmlns:sodipodi="http://sodipodi.sourceforge.net/DTD/sodipodi-0.dtd"
   xmlns:inkscape="http://www.inkscape.org/namespaces/inkscape"
   viewBox="0 -50 777.74173 513.26299"
   enable-background="new 0 -50 777.74173 513.26299"
   version="1.0"
   id="Municipios de la provincia de Santa Cruz de Tenerife"
   sodipodi:version="0.32"
   inkscape:version="0.44"
   sodipodi:docname="La Palma municipios.svg"
   sodipodi:docbase="d:\Home\Wikipedia\Projectos\África\Canárias">
  <metadata
     id="metadata227">
    <rdf:RDF>
      <cc:Work
         rdf:about="">
        <dc:format>image/svg+xml</dc:format>
        <dc:type
           rdf:resource="http://purl.org/dc/dcmitype/StillImage" />
      </cc:Work>
    </rdf:RDF>
  </metadata>
  <defs
     id="defs225">
    <clipPath
       id="SVG_CP_1">
      <path
         id="path6"
         d="M 0,0 L 0,413.26299 L 777.74173,413.26299 L 777.74173,0 L 0,0 z " />
    </clipPath>
    <clipPath
       id="clipPath2006">
      <path
         d="M 0,0 L 0,413.26299 L 777.74173,413.26299 L 777.74173,0 L 0,0 z "
         id="path2845" />
    </clipPath>
  </defs>
  <sodipodi:namedview
     inkscape:pageshadow="2"
     inkscape:pageopacity="0.0"
     guidetolerance="10.0"
     gridtolerance="10.0"
     objecttolerance="10.0"
     borderopacity="1.0"
     bordercolor="#666666"
     pagecolor="#ffffff"
     id="base"
     inkscape:zoom="1000"
     inkscape:cx="100"
     inkscape:cy="100"
     inkscape:window-x="-4"
     inkscape:window-y="-4"
     inkscape:current-layer="Municipios de la provincia de Santa Cruz de Tenerife" />
  <g
     id="Gran Canaria"
     transform="matrix(4.57435,0,0,4.57435,-522.8544,-1371.662)">
    <path
       clip-path="url(#SVG_CP_1)"
       d="M 169.91608,324.02226 L 171.59604,323.06219 L 172.31603,320.90204 L 174.95597,319.46194 L 176.87592,316.34173 L 177.59591,313.70155 L 176.63593,312.02143 L 177.8359,311.30138 L 177.59591,309.14123 L 178.07589,309.14123 L 181.19582,310.1013 L 185.27573,315.62168 L 185.99571,315.62168 L 189.11564,322.10212 L 187.67567,323.06219 L 187.67567,323.78224 L 184.79574,324.50229 L 182.87578,323.30221 L 181.19582,324.74231 L 179.75586,324.02226 L 174.47598,328.34255 L 170.87606,328.82259 L 170.15608,328.34255 L 170.63607,327.14247 L 169.43609,324.98232 L 169.91608,324.02226 z "
       id="Agaete"
       style="fill:#fff8dc;fill-opacity:1;fill-rule:evenodd;stroke:black;stroke-width:0.85011174;stroke-linejoin:round;stroke-miterlimit:4.28571415;stroke-dasharray:none;stroke-opacity:1" />
    <path
       clip-path="url(#SVG_CP_1)"
       d="M 240.71445,357.38455 L 239.27448,359.78471 L 240.23446,362.42489 L 240.95444,363.38496 L 241.91442,363.14494 L 240.71445,364.34503 L 240.95444,367.22522 L 239.99447,367.94527 L 238.31451,367.46524 L 237.11453,369.38537 L 236.15456,369.38537 L 236.15456,368.18529 L 234.47459,367.22522 L 232.79463,367.22522 L 233.03463,366.50517 L 228.47473,366.02514 L 227.75475,364.82506 L 224.15483,364.58504 L 216.955,362.66491 L 215.51503,361.46483 L 214.31506,353.54428 L 214.07506,349.94404 L 209.75516,346.58381 L 213.83507,347.78389 L 216.47501,350.18405 L 217.19499,349.464 L 224.39483,350.18405 L 228.95472,355.94445 L 232.07465,356.18447 L 233.99461,354.98438 L 235.43457,356.18447 L 240.71445,357.38455 z "
       id="Agüimes"
       style="fill:#fff8dc;fill-opacity:1;fill-rule:evenodd;stroke:black;stroke-width:0.85011174;stroke-linejoin:round;stroke-miterlimit:4.28571415;stroke-dasharray:none;stroke-opacity:1" />
    <path
       clip-path="url(#SVG_CP_1)"
       d="M 169.91608,324.02226 L 169.43609,324.98232 L 170.63607,327.14247 L 170.15608,328.34255 L 170.87606,328.82259 L 174.47598,328.34255 L 179.75586,324.02226 L 181.19582,324.74231 L 182.87578,323.30221 L 184.79574,324.50229 L 186.23571,325.22234 L 187.91567,325.46236 L 190.31561,327.86252 L 193.67553,329.0626 L 195.59549,330.5027 L 193.91553,331.70278 L 191.0356,334.58298 L 188.87565,335.06301 L 184.79574,334.34297 L 183.11578,336.74313 L 180.95583,336.98315 L 180.71583,337.94321 L 177.35591,336.74313 L 174.71597,338.18323 L 173.99599,339.62333 L 168.9561,337.94321 L 169.67609,333.86293 L 169.1961,331.46277 L 164.6362,328.10254 L 165.59618,326.90245 L 165.83618,325.22234 L 169.91608,324.02226 z "
       id="Artenara"
       style="fill:#fff8dc;fill-opacity:1;fill-rule:evenodd;stroke:black;stroke-width:0.85011174;stroke-linejoin:round;stroke-miterlimit:4.28571415;stroke-dasharray:none;stroke-opacity:1" />
    <path
       clip-path="url(#SVG_CP_1)"
       d="M 206.87523,302.90081 L 209.27518,302.90081 L 210.95514,302.18076 L 210.95514,301.70072 L 211.67512,301.94074 L 212.15511,301.22069 L 213.35508,300.98067 L 215.51503,303.14082 L 215.99502,302.42077 L 218.39496,303.62085 L 219.35494,303.38084 L 221.51489,305.54099 L 220.07493,308.18117 L 219.11495,308.42118 L 219.59494,309.38125 L 219.11495,309.38125 L 218.63496,312.26145 L 217.67498,312.26145 L 217.67498,313.22151 L 215.03504,314.90163 L 214.55505,316.58175 L 212.6351,317.06178 L 208.79519,316.34173 L 208.0752,315.14165 L 209.75516,312.02143 L 208.79519,311.06137 L 210.47515,306.50105 L 209.99516,304.10089 L 209.03518,303.38084 L 208.55519,304.10089 L 208.55519,303.38084 L 206.15525,304.58092 L 206.87523,303.62085 L 206.87523,302.90081 z "
       id="Arucas"
       style="fill:#fff8dc;fill-opacity:1;fill-rule:evenodd;stroke:black;stroke-width:0.85011174;stroke-linejoin:round;stroke-miterlimit:4.28571415;stroke-dasharray:none;stroke-opacity:1" />
    <path
       clip-path="url(#SVG_CP_1)"
       d="M 206.15525,304.58092 L 208.55519,303.38084 L 208.55519,304.10089 L 209.03518,303.38084 L 209.99516,304.10089 L 210.47515,306.50105 L 208.79519,311.06137 L 209.75516,312.02143 L 208.0752,315.14165 L 208.79519,316.34173 L 203.27531,318.26186 L 203.51531,316.58175 L 204.23529,314.66161 L 203.51531,313.94156 L 204.47529,311.06137 L 206.63524,307.46112 L 206.15525,305.54099 L 206.15525,304.58092 z "
       id="Firgas"
       style="fill:#fff8dc;fill-opacity:1;fill-rule:evenodd;stroke:black;stroke-width:0.85011174;stroke-linejoin:round;stroke-miterlimit:4.28571415;stroke-dasharray:none;stroke-opacity:1" />
    <path
       clip-path="url(#SVG_CP_1)"
       d="M 178.07589,309.14123 L 177.35591,308.42118 L 178.07589,306.26104 L 179.27587,305.781 L 179.03587,304.10089 L 178.31589,303.62085 L 179.75586,301.46071 L 177.59591,299.78059 L 177.35591,298.34049 L 179.03587,299.06054 L 180.47584,298.58051 L 181.19582,297.38043 L 182.39579,297.38043 L 182.87578,299.30056 L 185.27573,300.02061 L 188.39566,298.58051 L 189.35563,298.82053 L 190.7956,301.70072 L 190.7956,303.14082 L 191.75558,304.58092 L 190.07562,305.06095 L 191.27559,310.1013 L 192.47556,310.34132 L 191.51558,312.50146 L 191.75558,316.58175 L 191.51558,320.42201 L 192.95555,321.86211 L 192.71556,323.78224 L 195.1155,326.66244 L 195.59549,330.5027 L 193.67553,329.0626 L 190.31561,327.86252 L 187.91567,325.46236 L 186.23571,325.22234 L 184.79574,324.50229 L 187.67567,323.78224 L 187.67567,323.06219 L 189.11564,322.10212 L 185.99571,315.62168 L 185.27573,315.62168 L 181.19582,310.1013 L 178.07589,309.14123 z "
       id="Gáldar"
       style="fill:#fff8dc;fill-opacity:1;fill-rule:evenodd;stroke:black;stroke-width:0.85011174;stroke-linejoin:round;stroke-miterlimit:4.28571415;stroke-dasharray:none;stroke-opacity:1" />
    <path
       clip-path="url(#SVG_CP_1)"
       d="M 212.15511,344.90369 L 212.87509,346.34379 L 215.75503,346.82382 L 225.3548,346.34379 L 227.03477,347.06384 L 230.63468,347.30386 L 230.87468,348.26392 L 233.51462,349.464 L 237.35453,348.50394 L 239.99447,349.22399 L 240.23446,350.42407 L 241.43443,351.38414 L 240.95444,353.7843 L 240.71445,357.38455 L 235.43457,356.18447 L 233.99461,354.98438 L 232.07465,356.18447 L 228.95472,355.94445 L 224.39483,350.18405 L 217.19499,349.464 L 216.47501,350.18405 L 213.83507,347.78389 L 209.75516,346.58381 L 207.59521,345.62374 L 210.71514,345.14371 L 211.67512,345.38372 L 212.15511,344.90369 z "
       id="Ingenio"
       style="fill:#fff8dc;fill-opacity:1;fill-rule:evenodd;stroke:black;stroke-width:0.85011172;stroke-linejoin:round;stroke-miterlimit:4.28571415;stroke-dasharray:none;stroke-opacity:1"
       transform="translate(-4.853039e-6,0)" />
    <path
       clip-path="url(#SVG_CP_1)"
       d="M 186.23571,354.98438 L 185.99571,355.94445 L 185.03573,356.6645 L 184.31575,363.62498 L 186.4757,366.98521 L 186.95569,371.78554 L 186.23571,373.94569 L 185.27573,374.66573 L 185.99571,376.82588 L 185.03573,378.506 L 184.31575,381.62621 L 184.79574,382.58628 L 184.79574,383.30633 L 184.55574,383.78636 L 184.79574,384.02638 L 184.79574,386.66656 L 184.31575,388.34667 L 182.63579,389.54676 L 181.91581,389.78677 L 182.1558,388.82671 L 180.71583,386.18653 L 179.51586,385.70649 L 178.79588,386.42654 L 178.55588,385.46648 L 176.63593,384.02638 L 176.87592,383.54634 L 176.39593,383.78636 L 176.15594,383.06631 L 175.67595,383.78636 L 173.99599,382.58628 L 174.23598,381.86623 L 173.03601,381.14618 L 172.79602,380.18611 L 171.11605,380.18611 L 169.67609,378.02597 L 168.71611,377.78595 L 168.23612,376.58587 L 165.11619,375.6258 L 164.15622,374.66573 L 162.95624,372.98562 L 161.27628,371.78554 L 159.11633,366.50517 L 163.19624,363.86499 L 166.79615,357.62456 L 168.47612,356.6645 L 168.23612,353.54428 L 172.07603,348.98397 L 173.75599,346.58381 L 177.11592,347.30386 L 180.71583,346.58381 L 182.39579,348.26392 L 181.91581,350.66409 L 181.19582,351.86417 L 181.43582,352.58422 L 182.63579,353.54428 L 185.03573,354.02432 L 186.23571,354.98438 z "
       id="Mogán"
       style="fill:#fff8dc;fill-opacity:1;fill-rule:evenodd;stroke:black;stroke-width:0.85011174;stroke-linejoin:round;stroke-miterlimit:4.28571415;stroke-dasharray:none;stroke-opacity:1" />
    <path
       clip-path="url(#SVG_CP_1)"
       d="M 201.11536,302.66079 L 202.79532,303.38084 L 206.87523,302.90081 L 206.87523,303.62085 L 206.15525,304.58092 L 206.15525,305.54099 L 206.63524,307.46112 L 204.47529,311.06137 L 203.51531,313.94156 L 204.23529,314.66161 L 203.51531,316.58175 L 203.27531,318.26186 L 202.07534,318.74189 L 200.39538,320.42201 L 201.11536,320.66203 L 199.6754,322.58216 L 199.4354,325.22234 L 197.27545,327.6225 L 195.59549,330.5027 L 195.1155,326.66244 L 193.91553,323.30221 L 194.87551,319.94198 L 197.27545,316.58175 L 201.59535,312.02143 L 200.63537,309.14123 L 201.11536,302.66079 z "
       id="Moya"
       style="fill:#fff8dc;fill-opacity:1;fill-rule:evenodd;stroke:black;stroke-width:0.85011174;stroke-linejoin:round;stroke-miterlimit:4.28571415;stroke-dasharray:none;stroke-opacity:1" />
    <path
       clip-path="url(#SVG_CP_1)"
       d="M 235.19458,302.90081 L 233.99461,302.90081 L 233.51462,302.90081 L 233.51462,303.86087 L 232.79463,302.90081 L 232.79463,304.10089 L 232.31464,305.30097 L 233.27462,305.30097 L 233.27462,305.54099 L 232.31464,306.74107 L 233.27462,308.18117 L 233.51462,308.42118 L 233.99461,308.6612 L 235.91456,312.74148 L 234.95458,316.58175 L 235.67457,318.50188 L 234.2346,321.62209 L 235.43457,323.78224 L 235.19458,324.98232 L 236.15456,326.42242 L 239.03449,328.34255 L 237.83452,328.82259 L 235.43457,328.34255 L 234.47459,326.90245 L 233.51462,326.66244 L 230.15469,327.86252 L 228.23474,329.54264 L 226.79477,329.54264 L 227.99474,327.86252 L 225.3548,326.42242 L 222.71487,322.34214 L 216.715,324.74231 L 216.23501,324.02226 L 213.83507,324.50229 L 213.11509,323.54222 L 214.31506,322.34214 L 215.03504,319.94198 L 217.19499,317.78183 L 215.99502,316.58175 L 217.67498,313.22151 L 217.67498,312.26145 L 218.63496,312.26145 L 219.11495,309.38125 L 219.59494,309.38125 L 219.11495,308.42118 L 220.07493,308.18117 L 221.51489,305.54099 L 222.71487,305.06095 L 224.87482,307.70114 L 229.19472,306.50105 L 232.07465,303.14082 L 231.83465,300.74066 L 229.9147,299.54057 L 230.39469,297.86046 L 231.83465,297.62044 L 233.75461,295.46029 L 236.87454,295.94033 L 237.59452,297.14041 L 237.11453,298.58051 L 238.07451,298.82053 L 237.11453,299.06054 L 236.87454,304.82094 L 236.63454,300.02061 L 236.15456,301.94074 L 235.19458,302.90081 z "
       id="Las Palmas de Gran Canaria"
       style="fill:#fff8dc;fill-opacity:1;fill-rule:evenodd;stroke:black;stroke-width:0.85011174;stroke-linejoin:round;stroke-miterlimit:4.28571415;stroke-dasharray:none;stroke-opacity:1" />
    <path
       clip-path="url(#SVG_CP_1)"
       d="M 207.59521,345.62374 L 209.75516,346.58381 L 210.71514,348.26392 L 210.47515,349.70402 L 209.75516,351.14412 L 207.35522,352.82423 L 208.3152,354.98438 L 208.0752,358.58463 L 209.75516,359.5447 L 212.15511,362.42489 L 210.47515,363.62498 L 212.6351,367.46524 L 212.3951,368.18529 L 215.27504,368.42531 L 218.15497,370.34544 L 218.39496,369.14536 L 220.79491,369.62539 L 222.95486,368.66532 L 232.55464,378.98603 L 229.6747,380.18611 L 220.31492,381.62621 L 216.47501,384.26639 L 214.07506,384.26639 L 211.67512,386.66656 L 206.63524,388.34667 L 205.19527,389.30674 L 204.23529,393.86705 L 202.55533,394.5871 L 197.99544,394.10707 L 194.63551,391.22687 L 192.95555,392.18694 L 188.87565,390.50682 L 186.7157,389.30674 L 184.79574,389.78677 L 184.07576,390.50682 L 184.07576,391.22687 L 182.63579,389.54676 L 184.31575,388.34667 L 184.79574,386.66656 L 184.79574,384.02638 L 184.55574,383.78636 L 184.79574,383.30633 L 184.79574,382.58628 L 184.31575,381.62621 L 185.03573,378.506 L 185.99571,376.82588 L 185.27573,374.66573 L 186.23571,373.94569 L 186.95569,371.78554 L 186.4757,366.98521 L 184.31575,363.62498 L 185.03573,356.6645 L 185.99571,355.94445 L 186.23571,354.98438 L 188.15566,353.54428 L 192.71556,348.74395 L 192.95555,346.58381 L 196.07548,345.62374 L 198.23543,342.98356 L 198.95541,343.46359 L 198.71542,344.66367 L 200.63537,345.86376 L 204.23529,343.94362 L 206.15525,344.18364 L 207.59521,345.62374 z "
       id="San Bartolomé de Tirajana"
       style="fill:#fff8dc;fill-opacity:1;fill-rule:evenodd;stroke:black;stroke-width:0.85011174;stroke-linejoin:round;stroke-miterlimit:4.28571415;stroke-dasharray:none;stroke-opacity:1" />
    <path
       clip-path="url(#SVG_CP_1)"
       d="M 164.6362,328.10254 L 169.1961,331.46277 L 169.67609,333.86293 L 168.9561,337.94321 L 169.43609,343.46359 L 171.35605,345.62374 L 172.07603,348.98397 L 168.23612,353.54428 L 168.47612,356.6645 L 166.79615,357.62456 L 163.19624,363.86499 L 159.11633,366.50517 L 155.51641,358.82465 L 152.63648,355.2244 L 152.39649,353.30427 L 153.59646,347.30386 L 152.39649,341.78348 L 153.83645,339.38331 L 153.83645,338.18323 L 154.55644,337.7032 L 155.75641,333.86293 L 154.79643,331.9428 L 156.47639,331.22275 L 158.15635,331.70278 L 160.79629,330.98273 L 164.6362,328.10254 z "
       id="San Nicolás de Tolentino"
       style="fill:#fff8dc;fill-opacity:1;fill-rule:evenodd;stroke:black;stroke-width:0.85011174;stroke-linejoin:round;stroke-miterlimit:4.28571415;stroke-dasharray:none;stroke-opacity:1" />
    <path
       clip-path="url(#SVG_CP_1)"
       d="M 211.19513,327.14247 L 216.715,324.74231 L 222.71487,322.34214 L 225.3548,326.42242 L 227.99474,327.86252 L 226.79477,329.54264 L 221.51489,330.5027 L 220.55491,331.70278 L 218.15497,332.42283 L 216.715,332.42283 L 215.99502,333.86293 L 214.31506,331.46277 L 213.11509,330.74272 L 212.3951,328.58257 L 211.19513,327.14247 z "
       id="Santa Brígida"
       style="fill:#fff8dc;fill-opacity:1;fill-rule:evenodd;stroke:black;stroke-width:0.85011174;stroke-linejoin:round;stroke-miterlimit:4.28571415;stroke-dasharray:none;stroke-opacity:1" />
    <path
       clip-path="url(#SVG_CP_1)"
       d="M 236.15456,369.38537 L 235.43457,369.62539 L 234.47459,371.06549 L 233.51462,375.14577 L 233.99461,376.58587 L 232.55464,378.98603 L 222.95486,368.66532 L 220.79491,369.62539 L 218.39496,369.14536 L 218.15497,370.34544 L 215.27504,368.42531 L 212.3951,368.18529 L 212.6351,367.46524 L 210.47515,363.62498 L 212.15511,362.42489 L 209.75516,359.5447 L 208.0752,358.58463 L 208.3152,354.98438 L 207.35522,352.82423 L 209.75516,351.14412 L 210.47515,349.70402 L 210.71514,348.26392 L 209.75516,346.58381 L 214.07506,349.94404 L 214.31506,353.54428 L 215.51503,361.46483 L 216.955,362.66491 L 224.15483,364.58504 L 227.75475,364.82506 L 228.47473,366.02514 L 233.03463,366.50517 L 232.79463,367.22522 L 234.47459,367.22522 L 236.15456,368.18529 L 236.15456,369.38537 z "
       id="Santa Lucía de Tirajana"
       style="fill:#fff8dc;fill-opacity:1;fill-rule:evenodd;stroke:black;stroke-width:0.85011174;stroke-linejoin:round;stroke-miterlimit:4.28571415;stroke-dasharray:none;stroke-opacity:1" />
    <path
       clip-path="url(#SVG_CP_1)"
       d="M 189.35563,298.82053 L 191.51558,297.14041 L 192.47556,298.10048 L 192.71556,297.62044 L 194.15552,299.30056 L 193.91553,300.02061 L 194.63551,301.22069 L 195.3555,301.22069 L 196.07548,302.66079 L 197.27545,302.18076 L 198.71542,303.38084 L 201.11536,302.66079 L 200.63537,309.14123 L 201.59535,312.02143 L 197.27545,316.58175 L 194.87551,319.94198 L 193.91553,323.30221 L 195.1155,326.66244 L 192.71556,323.78224 L 192.95555,321.86211 L 191.51558,320.42201 L 191.75558,316.58175 L 191.51558,312.50146 L 192.47556,310.34132 L 191.27559,310.1013 L 190.07562,305.06095 L 191.75558,304.58092 L 190.7956,303.14082 L 190.7956,301.70072 L 189.35563,298.82053 z "
       id="Santa María de Guía de Gran Canaria"
       style="fill:#fff8dc;fill-opacity:1;fill-rule:evenodd;stroke:black;stroke-width:0.85011174;stroke-linejoin:round;stroke-miterlimit:4.28571415;stroke-dasharray:none;stroke-opacity:1" />
    <path
       clip-path="url(#SVG_CP_1)"
       stroke-miterlimit="10"
       d="M 199.4354,335.78306 L 200.39538,338.66326 L 204.23529,343.94362 L 200.63537,345.86376 L 198.71542,344.66367 L 198.95541,343.46359 L 198.23543,342.98356 L 196.07548,345.62374 L 192.95555,346.58381 L 192.71556,348.74395 L 188.15566,353.54428 L 186.23571,354.98438 L 185.03573,354.02432 L 182.63579,353.54428 L 181.43582,352.58422 L 181.19582,351.86417 L 181.91581,350.66409 L 182.39579,348.26392 L 180.71583,346.58381 L 177.11592,347.30386 L 173.75599,346.58381 L 172.07603,348.98397 L 171.35605,345.62374 L 169.43609,343.46359 L 168.9561,337.94321 L 173.99599,339.62333 L 174.71597,338.18323 L 177.35591,336.74313 L 180.71583,337.94321 L 180.95583,336.98315 L 183.11578,336.74313 L 184.79574,334.34297 L 188.87565,335.06301 L 191.0356,334.58298 L 193.91553,331.70278 L 195.59549,330.5027 L 197.27545,331.46277 L 198.71542,332.90287 L 199.4354,335.78306"
       id="Tejeda"
       style="fill:#fff8dc;fill-opacity:1;stroke:black;stroke-width:0.85011174;stroke-linejoin:round;stroke-miterlimit:4.28571415;stroke-dasharray:none;stroke-opacity:1" />
    <path
       clip-path="url(#SVG_CP_1)"
       d="M 226.79477,329.54264 L 228.23474,329.54264 L 230.15469,327.86252 L 233.51462,326.66244 L 234.47459,326.90245 L 235.43457,328.34255 L 237.83452,328.82259 L 239.03449,328.34255 L 240.71445,329.0626 L 241.19444,331.9428 L 243.35439,333.3829 L 242.8744,334.34297 L 243.35439,335.06301 L 243.11439,336.02308 L 244.07437,336.2631 L 244.55436,337.46318 L 242.39441,339.14329 L 242.8744,341.06343 L 241.91442,340.82341 L 241.43443,341.78348 L 241.43443,343.46359 L 242.15442,343.46359 L 242.39441,343.94362 L 241.67443,345.14371 L 242.63441,345.86376 L 241.91442,346.34379 L 242.15442,347.06384 L 244.31437,347.78389 L 244.31437,349.22399 L 246.23432,350.18405 L 245.99433,351.38414 L 243.59438,349.94404 L 241.43443,351.38414 L 240.23446,350.42407 L 239.99447,349.22399 L 237.35453,348.50394 L 233.51462,349.464 L 230.87468,348.26392 L 230.63468,347.30386 L 227.03477,347.06384 L 225.3548,346.34379 L 215.75503,346.82382 L 212.87509,346.34379 L 212.15511,344.90369 L 212.3951,344.42366 L 214.31506,345.14371 L 216.47501,344.42366 L 217.67498,343.46359 L 220.07493,342.74354 L 221.51489,340.34338 L 225.83479,338.90328 L 226.07479,337.46318 L 226.55478,336.98315 L 226.07479,333.86293 L 225.3548,333.3829 L 221.51489,333.62292 L 220.07493,332.66285 L 218.15497,332.42283 L 220.55491,331.70278 L 221.51489,330.5027 L 226.79477,329.54264 z "
       id="Telde"
       style="fill:#fff8dc;fill-opacity:1;fill-rule:evenodd;stroke:black;stroke-width:0.85011174;stroke-linejoin:round;stroke-miterlimit:4.28571415;stroke-dasharray:none;stroke-opacity:1" />
    <path
       clip-path="url(#SVG_CP_1)"
       d="M 217.67498,313.22151 L 215.99502,316.58175 L 217.19499,317.78183 L 215.03504,319.94198 L 214.31506,322.34214 L 213.11509,323.54222 L 213.83507,324.50229 L 216.23501,324.02226 L 216.715,324.74231 L 211.19513,327.14247 L 206.63524,330.02267 L 204.71528,329.78265 L 204.71528,328.82259 L 205.67526,328.34255 L 205.91525,326.42242 L 204.95527,324.02226 L 208.79519,316.34173 L 212.6351,317.06178 L 214.55505,316.58175 L 215.03504,314.90163 L 217.67498,313.22151 z "
       id="Teror"
       style="fill:#fff8dc;fill-opacity:1;fill-rule:evenodd;stroke:black;stroke-width:0.85011174;stroke-linejoin:round;stroke-miterlimit:4.28571415;stroke-dasharray:none;stroke-opacity:1" />
    <path
       clip-path="url(#SVG_CP_1)"
       d="M 203.27531,318.26186 L 208.79519,316.34173 L 204.95527,324.02226 L 205.91525,326.42242 L 205.67526,328.34255 L 204.71528,328.82259 L 204.71528,329.78265 L 202.07534,331.70278 L 198.71542,332.90287 L 197.27545,331.46277 L 195.59549,330.5027 L 197.27545,327.6225 L 199.4354,325.22234 L 199.6754,322.58216 L 201.11536,320.66203 L 200.39538,320.42201 L 202.07534,318.74189 L 203.27531,318.26186 z "
       id="Valleseco"
       style="fill:#fff8dc;fill-opacity:1;fill-rule:evenodd;stroke:black;stroke-width:0.85011174;stroke-linejoin:round;stroke-miterlimit:4.28571415;stroke-dasharray:none;stroke-opacity:1" />
    <path
       clip-path="url(#SVG_CP_1)"
       d="M 218.15497,332.42283 L 220.07493,332.66285 L 221.51489,333.62292 L 225.3548,333.3829 L 226.07479,333.86293 L 226.55478,336.98315 L 226.07479,337.46318 L 225.83479,338.90328 L 221.51489,340.34338 L 220.07493,342.74354 L 217.67498,343.46359 L 216.47501,344.42366 L 214.31506,345.14371 L 212.3951,344.42366 L 212.15511,344.90369 L 211.67512,345.38372 L 210.71514,345.14371 L 207.59521,345.62374 L 208.55519,342.50353 L 208.79519,337.94321 L 211.19513,336.02308 L 214.79505,334.823 L 215.99502,333.86293 L 216.715,332.42283 L 218.15497,332.42283 z "
       id="Valsequillo de Gran Canaria"
       style="fill:#fff8dc;fill-opacity:1;fill-rule:evenodd;stroke:black;stroke-width:0.85011174;stroke-linejoin:round;stroke-miterlimit:4.28571415;stroke-dasharray:none;stroke-opacity:1" />
    <path
       clip-path="url(#SVG_CP_1)"
       d="M 204.71528,329.78265 L 206.63524,330.02267 L 211.19513,327.14247 L 212.3951,328.58257 L 213.11509,330.74272 L 214.31506,331.46277 L 215.99502,333.86293 L 214.79505,334.823 L 211.19513,336.02308 L 208.79519,337.94321 L 208.55519,342.50353 L 207.59521,345.62374 L 206.15525,344.18364 L 204.23529,343.94362 L 200.39538,338.66326 L 198.71542,332.90287 L 202.07534,331.70278 L 204.71528,329.78265 z "
       id="Vega de San Mateo"
       style="fill:#fff8dc;fill-opacity:1;fill-rule:evenodd;stroke:black;stroke-width:0.85011174;stroke-linejoin:round;stroke-miterlimit:4.28571415;stroke-dasharray:none;stroke-opacity:1" />
    <path
       id="Contorno de Gran Canaria"
       transform="translate(-5.257724e-6,0)"
       d="M 233.75,295.46875 L 231.84375,297.625 L 230.40625,297.875 L 229.90625,299.53125 L 231.84375,300.75 L 232.0625,303.15625 L 229.1875,306.5 L 224.875,307.6875 L 222.71875,305.0625 L 221.5,305.53125 L 219.34375,303.375 L 218.40625,303.625 L 216,302.40625 L 215.5,303.15625 L 213.34375,300.96875 L 212.15625,301.21875 L 211.6875,301.9375 L 210.96875,301.6875 L 210.96875,302.1875 L 209.28125,302.90625 L 206.875,302.90625 L 202.78125,303.375 L 201.125,302.65625 L 198.71875,303.375 L 197.28125,302.1875 L 196.0625,302.65625 L 195.34375,301.21875 L 194.625,301.21875 L 193.90625,300.03125 L 194.15625,299.3125 L 192.71875,297.625 L 192.46875,298.09375 L 191.5,297.125 L 190.3125,297.875 L 189.34375,298.8125 L 188.40625,298.59375 L 185.28125,300.03125 L 182.875,299.3125 L 182.40625,297.375 L 181.1875,297.375 L 180.46875,298.59375 L 179.03125,299.0625 L 177.34375,298.34375 L 177.59375,299.78125 L 179.75,301.46875 L 178.3125,303.625 L 179.03125,304.09375 L 179.28125,305.78125 L 178.0625,306.25 L 177.34375,308.40625 L 177.59375,308.65625 L 178.0625,309.15625 L 177.59375,309.15625 L 177.84375,311.3125 L 176.625,312.03125 L 177.59375,313.6875 L 176.875,316.34375 L 174.96875,319.46875 L 172.3125,320.90625 L 171.59375,323.0625 L 170.625,323.53125 L 169.90625,324.03125 L 165.84375,325.21875 L 165.59375,326.90625 L 164.625,328.09375 L 160.78125,330.96875 L 158.15625,331.6875 L 156.46875,331.21875 L 154.78125,331.9375 L 155.75,333.875 L 154.5625,337.71875 L 153.84375,338.1875 L 153.84375,339.375 L 152.40625,341.78125 L 153.59375,347.3125 L 152.40625,353.3125 L 152.625,355.21875 L 155.53125,358.8125 L 159.125,366.5 L 161.28125,371.78125 L 162.96875,373 L 164.15625,374.65625 L 165.125,375.625 L 168.25,376.59375 L 168.71875,377.78125 L 169.6875,378.03125 L 171.125,380.1875 L 172.78125,380.1875 L 173.03125,381.15625 L 174.25,381.875 L 174,382.59375 L 175.6875,383.78125 L 176.15625,383.0625 L 176.40625,383.78125 L 176.875,383.53125 L 176.625,384.03125 L 178.5625,385.46875 L 178.78125,386.4375 L 179.53125,385.71875 L 180.71875,386.1875 L 182.15625,388.8125 L 181.90625,389.78125 L 182.625,389.53125 L 184.0625,391.21875 L 184.0625,390.5 L 184.78125,389.78125 L 186.71875,389.3125 L 188.875,390.5 L 192.96875,392.1875 L 194.625,391.21875 L 198,394.09375 L 202.5625,394.59375 L 204.25,393.875 L 205.1875,389.3125 L 206.625,388.34375 L 211.6875,386.65625 L 214.0625,384.28125 L 216.46875,384.28125 L 220.3125,381.625 L 229.6875,380.1875 L 232.5625,379 L 234,376.59375 L 233.5,375.15625 L 234.46875,371.0625 L 235.4375,369.625 L 235.6875,369.625 L 236.15625,369.375 L 237.125,369.375 L 238.3125,367.46875 L 240,367.9375 L 240.96875,367.21875 L 240.71875,364.34375 L 241.90625,363.15625 L 240.96875,363.375 L 240.25,362.4375 L 239.28125,359.78125 L 240,358.59375 L 240.71875,357.375 L 240.96875,353.78125 L 241.4375,351.375 L 243.59375,349.9375 L 246,351.375 L 246.21875,350.1875 L 244.3125,349.21875 L 244.3125,347.78125 L 242.15625,347.0625 L 241.90625,346.34375 L 242.625,345.875 L 241.6875,345.15625 L 242.40625,343.9375 L 242.15625,343.46875 L 241.4375,343.46875 L 241.4375,341.78125 L 241.90625,340.8125 L 242.875,341.0625 L 242.40625,339.15625 L 244.5625,337.46875 L 244.0625,336.25 L 243.125,336.03125 L 243.34375,335.0625 L 242.875,334.34375 L 243.34375,333.375 L 241.1875,331.9375 L 240.71875,329.0625 L 239.03125,328.34375 L 236.15625,326.4375 L 235.1875,324.96875 L 235.4375,323.78125 L 234.25,321.625 L 235.6875,318.5 L 234.96875,316.59375 L 235.90625,312.75 L 234,308.65625 L 233.5,308.40625 L 233.28125,308.1875 L 232.3125,306.75 L 233.28125,305.53125 L 233.28125,305.3125 L 232.3125,305.3125 L 232.78125,304.09375 L 232.78125,302.90625 L 233.5,303.875 L 233.5,302.90625 L 234,302.90625 L 235.1875,302.90625 L 236.15625,301.9375 L 236.625,300.03125 L 236.875,304.8125 L 237.125,299.0625 L 238.0625,298.8125 L 237.125,298.59375 L 237.59375,297.125 L 236.875,295.9375 L 233.75,295.46875 z "
       style="fill:none;fill-rule:evenodd;stroke:black;stroke-width:1.70022349;stroke-linecap:butt;stroke-linejoin:round;stroke-miterlimit:4;stroke-dasharray:none;stroke-opacity:1" />
  </g>
</svg>
